<svg xmlns="http://www.w3.org/2000/svg" viewBox="0 0 500 500"><g id="freepik--background-complete--inject-106"><path d="M401.6,56.72H290.26s11-30.15,28-30.15S340.6,47.38,340.6,47.38s11.47-11.31,20.88-11.31,17.6,15,17.6,15S392.39,43,401.6,56.72Z" style="fill:#ebebeb"></path><path d="M325.4,138.55h-52s11.63-16.84,20.79-16.84S306,132.94,306,132.94s6.46-5.24,12.45-4.31S325.4,138.55,325.4,138.55Z" style="fill:#ebebeb;opacity:0.5"></path><path d="M468.46,110.69h-52s11.63-16.84,20.79-16.84,11.87,11.23,11.87,11.23,6.46-5.25,12.45-4.31S468.46,110.69,468.46,110.69Z" style="fill:#ebebeb;opacity:0.5"></path><path d="M132.89,150.66H31.54s13.88-31,28.73-32.93,21.95,23,21.95,23,9.58-8.83,17.11-8.83,13.34,11.62,13.34,11.62S127.73,135.59,132.89,150.66Z" style="fill:#ebebeb"></path><path d="M213.91,84.13H145.45S157.21,61.68,170,61.35s19.46,17,19.46,17S209.28,62.42,213.91,84.13Z" style="fill:#ebebeb;opacity:0.5"></path></g><g id="freepik--water-2--inject-106"><polyline points="43.49 213.48 56.79 305.15 127.56 365.72 159.28 431.72 250.29 477.61 323.22 454.33 367.12 385.16 419.26 345.54 456.51 213.48 43.49 213.48" style="fill:#37474f"></polyline><polygon points="139.75 404.45 152.16 434.6 173.22 447.01 145.51 439.92 139.75 404.45" style="fill:#37474f"></polygon><polygon points="394.78 373.22 426.27 350.14 433.8 311.12 432.05 352.91 394.78 373.22" style="fill:#37474f"></polygon><polygon points="163.23 448.83 180.78 459.03 200.73 459.03 163.23 448.83" style="fill:#37474f"></polygon></g><g id="freepik--Iceberg--inject-106"><polygon points="123.07 213.48 129.54 238.19 142.96 254.32 163.81 305.56 193.6 320.74 216.12 382.42 250.77 408.98 266.58 443.14 276.91 448.83 289.68 423.22 306.11 334.03 340.14 306.51 343.79 264.76 355.19 260.02 358.32 241.99 376.7 213.48 123.07 213.48" style="fill:#FFC727"></polygon><polygon points="123.07 213.48 129.54 238.19 142.96 254.32 163.81 305.56 193.6 320.74 216.12 382.42 250.77 408.98 266.58 443.14 276.91 448.83 289.68 423.22 306.11 334.03 340.14 306.51 343.79 264.76 355.19 260.02 358.32 241.99 376.7 213.48 123.07 213.48" style="fill:#fff;opacity:0.2"></polygon><polygon points="285.78 345.5 276.91 448.83 266.57 443.14 250.77 408.98 216.11 382.42 193.6 320.74 163.81 305.57 142.96 254.33 129.54 238.19 123.07 213.47 205.57 213.47 274.63 260.91 259.04 307.58 285.78 345.5" style="fill:#FFC727"></polygon><polygon points="129.54 238.19 200.46 233.03 274.63 260.91 205.57 213.47 123.07 213.47 129.54 238.19" style="opacity:0.1"></polygon><polygon points="259.04 307.58 262.1 343.68 281.71 392.93 285.78 345.5 259.04 307.58" style="opacity:0.1"></polygon><polygon points="343.79 264.76 321.52 274.4 306.11 334.03 331.91 296.46 343.79 264.76" style="fill:#FFC727"></polygon><polygon points="358.32 241.99 306.91 225.18 355.19 260.02 358.32 241.99" style="fill:#FFC727"></polygon><polygon points="216.11 382.42 259.05 396.55 250.77 408.98 216.11 382.42" style="opacity:0.1"></polygon><polygon points="266.57 443.14 259.05 396.55 250.77 408.98 266.57 443.14" style="fill:#fff;opacity:0.30000000000000004"></polygon><polygon points="193.6 320.74 209.21 303.57 142.96 254.33 163.81 305.57 193.6 320.74" style="opacity:0.1"></polygon><polygon points="259.04 307.58 234.77 300.78 262.96 295.84 289.43 305.15 259.04 307.58" style="fill:#FFC727"></polygon><polygon points="259.04 307.58 234.77 300.78 262.96 295.84 289.43 305.15 259.04 307.58" style="fill:#fff;opacity:0.2"></polygon><polyline points="234.77 300.78 262.96 295.84 289.43 305.15" style="fill:#FFC727"></polyline><polygon points="129.54 238.19 205.57 213.47 123.07 213.47 129.54 238.19" style="opacity:0.1"></polygon><polygon points="262.1 343.68 285.78 345.5 259.04 307.58 262.1 343.68" style="opacity:0.1"></polygon><polygon points="306.91 225.18 321.52 274.4 355.19 260.02 306.91 225.18" style="fill:#fff;opacity:0.30000000000000004"></polygon><polygon points="205.57 213.47 232.84 221.55 284.14 213.48 205.57 213.47" style="fill:#FFC727"></polygon><polygon points="154.5 213.48 376.7 213.48 366.06 201.18 361.81 187.55 324.36 163.17 306.91 151.34 284.85 144.41 265.37 107.25 231.08 84.19 215.34 51.17 193.25 65.07 170.31 116.2 152.19 130.18 148.61 152.06 133.19 181.1 140.28 198.31 130.31 207.63 123.07 213.48 154.5 213.48" style="fill:#FFC727"></polygon><polygon points="154.5 213.48 376.7 213.48 366.06 201.18 361.81 187.55 324.36 163.17 306.91 151.34 284.85 144.41 265.37 107.25 231.08 84.19 215.34 51.17 193.25 65.07 170.31 116.2 152.19 130.18 148.61 152.06 133.19 181.1 140.28 198.31 130.31 207.63 123.07 213.48 154.5 213.48" style="fill:#fff;opacity:0.7000000000000001"></polygon><polygon points="274.63 213.48 123.07 213.48 140.28 198.31 133.19 181.1 148.6 152.05 152.19 130.18 170.31 116.2 193.24 65.07 215.34 51.16 195.05 111.4 204.17 128.8 195.05 151.07 207.76 167.7 247.29 179.98 249.89 197.12 274.63 213.48" style="fill:#FFC727;opacity:0.4"></polygon><polygon points="182.78 115.16 196.58 106.88 215.05 106.48 196.44 114.05 182.78 115.16" style="fill:#FFC727"></polygon><polygon points="182.78 115.16 196.58 106.88 215.05 106.48 196.44 114.05 182.78 115.16" style="fill:#fff;opacity:0.7000000000000001"></polygon><polygon points="182.78 115.16 215.05 106.48 196.44 114.05 182.78 115.16" style="fill:#FFC727;opacity:0.4"></polygon><polygon points="209.21 213.48 140.28 198.31 123.07 213.48 209.21 213.48" style="fill:#FFC727;opacity:0.7000000000000001"></polygon><polygon points="284.85 144.41 259.05 165.4 306.91 151.34 284.85 144.41" style="fill:#fff;opacity:0.7000000000000001"></polygon><polygon points="366.06 201.18 332.56 196.74 298.91 213.48 376.7 213.48 366.06 201.18" style="fill:#FFC727;opacity:0.4"></polygon><polygon points="231.08 84.19 204.17 128.8 265.37 107.25 231.08 84.19" style="fill:#fff;opacity:0.7000000000000001"></polygon><polygon points="215.05 124.97 217.57 139.87 234.77 158.61 221.58 138.23 222.39 122.38 215.05 124.97" style="fill:#FFC727;opacity:0.5"></polygon><polygon points="152.19 130.18 180.04 161.25 182.78 196.74 133.19 181.1 148.6 152.05 152.19 130.18" style="fill:#FFC727;opacity:0.7000000000000001"></polygon><polygon points="170.31 116.2 195.6 85.17 193.24 65.07 170.31 116.2" style="fill:#FFC727;opacity:0.7000000000000001"></polygon><polygon points="249.89 197.12 247.29 179.98 223.8 192.85 209.21 213.48 249.89 197.12" style="fill:#FFC727;opacity:0.7000000000000001"></polygon><path d="M332.56,196.74l29.25-9.19,4.25,13.63Z" style="fill:#fff;opacity:0.7000000000000001"></path><polygon points="259.05 165.4 278 168.2 306.91 151.34 259.05 165.4" style="fill:#FFC727;opacity:0.4"></polygon><polygon points="148.6 152.05 180.04 161.25 152.19 130.18 148.6 152.05" style="fill:#FFC727"></polygon><polygon points="209.21 213.48 247.29 179.98 223.8 192.85 209.21 213.48" style="fill:#FFC727"></polygon></g><g id="freepik--Fishes--inject-106"><path d="M189.92,364.11c.16.09,17.4.35,17.77.55s-3.47,3.77-7.09,4.08c-5.42.47-10.68-3.83-10.68-3.83s-2.68,2.07-3.31,1.33,2.61-1.56,2.61-1.56-4.13-.53-3.81-1.68S189.92,364.11,189.92,364.11Z" style="fill:#fff"></path><path d="M178.74,295.93c.15,0,12.07-9.38,12.44-9.43s-.29,4.48-2.59,6.69c-3.44,3.32-9.41,3.29-9.41,3.29s-.69,2.89-1.53,2.73.92-2.5.92-2.5-3.1,1.91-3.53,1S178.74,295.93,178.74,295.93Z" style="fill:#fff"></path><path d="M175,372.67c.11.11,14.75,4,15,4.27s-3.75,2.47-6.91,2c-4.72-.76-8.28-5.55-8.28-5.55s-2.72,1.19-3.1.42,2.55-.77,2.55-.77-3.39-1.33-2.88-2.24S175,372.67,175,372.67Z" style="fill:#fff"></path><path d="M118,277.8c.06.05,7.92,1.48,8.07,1.61s-1.87,1.45-3.55,1.32c-2.51-.2-4.58-2.56-4.58-2.56s-1.39.74-1.62.35,1.31-.51,1.31-.51-1.84-.55-1.61-1.06S118,277.8,118,277.8Z" style="fill:#fff"></path><path d="M161.43,286.89c.08,0,7.73-2.27,7.92-2.23s-1,2.15-2.56,2.79c-2.33,1-5.25-.2-5.25-.2s-.9,1.28-1.28,1.05.93-1.06.93-1.06-1.89.35-1.91-.21S161.43,286.89,161.43,286.89Z" style="fill:#fff"></path><path d="M105.7,287.72c.25,0,12-3.28,12.61-3.31s-1.78,3.33-5,4.9-7.5-1.16-7.5-1.16-3.37,2.15-3.76,1.31,2.7-1.42,2.7-1.42-3.64-.42-3.44-1.48S105.7,287.72,105.7,287.72Z" style="fill:#fff"></path><path d="M196.44,343.06c.18,0,8.56-2.35,9-2.38s-1.28,2.39-3.56,3.52-5.37-.83-5.37-.83-2.41,1.55-2.68.95,1.92-1,1.92-1-2.6-.3-2.46-1.06S196.44,343.06,196.44,343.06Z" style="fill:#fff"></path><path d="M181.6,282.18c.2-.07,9.05-4.92,9.56-5.07s-.81,3-3.09,4.91-6.28.48-6.28.48-2.32,2.39-2.79,1.78,1.91-1.66,1.91-1.66-3,.35-3.06-.54S181.6,282.18,181.6,282.18Z" style="fill:#fff"></path><path d="M306.28,308.13c-.16,0-13.85-6.43-14.22-6.4s1.28,4.3,4,5.94c4.1,2.46,9.9,1.1,9.9,1.1s1.32,2.66,2.09,2.32-1.45-2.24-1.45-2.24,3.45,1.18,3.65.15S306.28,308.13,306.28,308.13Z" style="fill:#fff"></path><path d="M396.66,275.87c-.06.05-8,1.28-8.1,1.4a5.13,5.13,0,0,0,3.51,1.41c2.51-.14,4.65-2.44,4.65-2.44s1.36.77,1.6.39-1.3-.55-1.3-.55,1.86-.5,1.64-1S396.66,275.87,396.66,275.87Z" style="fill:#fff"></path><path d="M331.66,352.31c-.08,0-7.75-2.21-7.94-2.16s1,2.13,2.58,2.76c2.34.95,5.25-.24,5.25-.24s.9,1.28,1.28,1-.94-1-.94-1,1.9.33,1.91-.22S331.66,352.31,331.66,352.31Z" style="fill:#fff"></path><path d="M353.82,232.86c-.24.06-12.35,1-13,1.2s2.81,2.52,6.35,2.9,6.64-3.65,6.64-3.65,3.9.87,4-.05-3-.41-3-.41,3.27-1.65,2.73-2.57S353.82,232.86,353.82,232.86Z" style="fill:#fff"></path><path d="M345.09,374.85c-.2-.08-9.58-5.47-10.12-5.65s.8,3.27,3.21,5.33,6.71.66,6.71.66,2.43,2.6,2.94,2-2-1.82-2-1.82,3.22.44,3.29-.51S345.09,374.85,345.09,374.85Z" style="fill:#fff"></path><path d="M296.29,318.83c-.18,0-8.86-.54-9.31-.47s1.74,2.07,4.21,2.7,5.07-1.91,5.07-1.91,2.68,1,2.82.37-2.09-.6-2.09-.6,2.48-.83,2.19-1.54S296.29,318.83,296.29,318.83Z" style="fill:#fff"></path><path d="M353.56,359.58c-.2.07-10.15,1.72-10.65,1.92s2.51,1.88,5.47,1.94,5.23-3.49,5.23-3.49,3.29.44,3.28-.32-2.52-.13-2.52-.13,2.59-1.59,2.07-2.31S353.56,359.58,353.56,359.58Z" style="fill:#fff"></path></g></svg>