<svg xmlns="http://www.w3.org/2000/svg" viewBox="0 0 500 500"><g id="freepik--background-complete--inject-1"><rect y="382.4" width="500" height="0.25" style="fill:#ebebeb"></rect><rect x="416.78" y="398.49" width="33.12" height="0.25" style="fill:#ebebeb"></rect><rect x="322.53" y="401.21" width="8.69" height="0.25" style="fill:#ebebeb"></rect><rect x="396.59" y="389.21" width="19.19" height="0.25" style="fill:#ebebeb"></rect><rect x="52.46" y="390.89" width="43.19" height="0.25" style="fill:#ebebeb"></rect><rect x="104.56" y="390.89" width="6.33" height="0.25" style="fill:#ebebeb"></rect><rect x="131.47" y="395.11" width="93.68" height="0.25" style="fill:#ebebeb"></rect><path d="M237,337.8H43.91a5.71,5.71,0,0,1-5.7-5.71V60.66A5.71,5.71,0,0,1,43.91,55H237a5.71,5.71,0,0,1,5.71,5.71V332.09A5.71,5.71,0,0,1,237,337.8ZM43.91,55.2a5.46,5.46,0,0,0-5.45,5.46V332.09a5.46,5.46,0,0,0,5.45,5.46H237a5.47,5.47,0,0,0,5.46-5.46V60.66A5.47,5.47,0,0,0,237,55.2Z" style="fill:#ebebeb"></path><path d="M453.31,337.8H260.21a5.72,5.72,0,0,1-5.71-5.71V60.66A5.72,5.72,0,0,1,260.21,55h193.1A5.71,5.71,0,0,1,459,60.66V332.09A5.71,5.71,0,0,1,453.31,337.8ZM260.21,55.2a5.47,5.47,0,0,0-5.46,5.46V332.09a5.47,5.47,0,0,0,5.46,5.46h193.1a5.47,5.47,0,0,0,5.46-5.46V60.66a5.47,5.47,0,0,0-5.46-5.46Z" style="fill:#ebebeb"></path><path d="M285.78,58.28A71.18,71.18,0,0,0,246.15,78c-11.55,11.4-18.68,26.57-30.25,38a89.07,89.07,0,0,1-41.46,23.21c-12.89,3.13-25.1.7-37.84,4.52a110.3,110.3,0,0,0-77.91,91c-2.39,17.54-.37,36,8,51.63A68.9,68.9,0,0,0,96,315c20.62,10.42,44.79,9.75,67.73,12.47A221.16,221.16,0,0,1,226,344.29c24.78,10.8,47.75,26.21,73.92,33,31.32,8.12,66.54,2.45,92.09-17.41s39.88-54.19,33.39-85.89c-4-19.45-15-36.67-21.63-55.36a129.66,129.66,0,0,1-7.34-50.16c.83-16.06,4.63-32.47.43-48-3.15-11.71-10.65-21.83-19.27-30.36C354.94,67.65,318.33,53.16,285.78,58.28Z" style="fill:#e6e6e6"></path><polygon points="211.98 176.89 206.87 176.89 205.6 172.88 204.36 176.89 199.11 176.89 203.25 180.47 201.27 186.88 205.6 182.49 210.04 186.88 207.98 180.4 211.98 176.89" style="fill:#fff"></polygon><polygon points="304.91 340.47 299.79 340.47 298.52 336.46 297.28 340.47 292.03 340.47 296.17 344.05 294.19 350.46 298.52 346.07 302.96 350.46 300.91 343.98 304.91 340.47" style="fill:#fff"></polygon><polygon points="212.38 246.62 210.19 246.62 209.65 244.9 209.12 246.62 206.87 246.62 208.64 248.15 207.8 250.89 209.65 249.02 211.55 250.89 210.67 248.12 212.38 246.62" style="fill:#fff"></polygon><polygon points="349.7 231.33 347.51 231.33 346.97 229.61 346.44 231.33 344.19 231.33 345.96 232.86 345.12 235.6 346.97 233.72 348.87 235.6 347.99 232.83 349.7 231.33" style="fill:#fff"></polygon><polygon points="213.59 222.6 211.41 222.6 210.86 220.88 210.33 222.6 208.09 222.6 209.86 224.13 209.01 226.87 210.86 225 212.76 226.87 211.88 224.1 213.59 222.6" style="fill:#fff"></polygon><polygon points="136.92 230.01 134.73 230.01 134.19 228.3 133.66 230.01 131.41 230.01 133.18 231.54 132.34 234.29 134.19 232.41 136.09 234.29 135.21 231.52 136.92 230.01" style="fill:#fff"></polygon><polygon points="145.91 271.72 143.73 271.72 143.18 270 142.65 271.72 140.41 271.72 142.18 273.25 141.33 275.99 143.18 274.11 145.08 275.99 144.2 273.22 145.91 271.72" style="fill:#fff"></polygon><polygon points="339.87 188.27 337.68 188.27 337.14 186.55 336.61 188.27 334.36 188.27 336.13 189.8 335.29 192.54 337.14 190.67 339.04 192.54 338.16 189.77 339.87 188.27" style="fill:#fff"></polygon><polygon points="323.62 129.86 322.04 129.86 321.65 128.61 321.26 129.86 319.64 129.86 320.92 130.96 320.31 132.94 321.65 131.59 323.02 132.94 322.38 130.94 323.62 129.86" style="fill:#fff"></polygon><polygon points="231.72 188.63 230.14 188.63 229.75 187.38 229.36 188.63 227.74 188.63 229.02 189.73 228.41 191.71 229.75 190.36 231.12 191.71 230.49 189.71 231.72 188.63" style="fill:#fff"></polygon><polygon points="172.42 201.41 170.84 201.41 170.44 200.17 170.06 201.41 168.44 201.41 169.72 202.51 169.11 204.5 170.44 203.14 171.81 204.5 171.18 202.5 172.42 201.41" style="fill:#fff"></polygon><polygon points="257.68 129.71 256.1 129.71 255.71 128.47 255.32 129.71 253.7 129.71 254.98 130.81 254.37 132.79 255.71 131.44 257.08 132.79 256.44 130.79 257.68 129.71" style="fill:#fff"></polygon><polygon points="376.29 206.99 374.71 206.99 374.32 205.75 373.93 206.99 372.31 206.99 373.59 208.1 372.98 210.08 374.32 208.72 375.69 210.08 375.05 208.08 376.29 206.99" style="fill:#fff"></polygon><polygon points="335.13 157.99 333.56 157.99 333.16 156.75 332.78 157.99 331.15 157.99 332.44 159.1 331.82 161.08 333.16 159.72 334.53 161.08 333.9 159.08 335.13 157.99" style="fill:#fff"></polygon><polygon points="383.99 237.92 382.41 237.92 382.01 236.68 381.63 237.92 380.01 237.92 381.29 239.03 380.68 241.01 382.01 239.65 383.39 241.01 382.75 239 383.99 237.92" style="fill:#fff"></polygon><polygon points="347.56 300.01 345.98 300.01 345.58 298.77 345.2 300.01 343.58 300.01 344.86 301.11 344.25 303.09 345.58 301.74 346.95 303.09 346.32 301.09 347.56 300.01" style="fill:#fff"></polygon><polygon points="320.7 233.84 319.12 233.84 318.73 232.6 318.34 233.84 316.72 233.84 318 234.95 317.39 236.93 318.73 235.58 320.1 236.93 319.46 234.93 320.7 233.84" style="fill:#fff"></polygon><polygon points="230.84 243.5 229.26 243.5 228.86 242.26 228.48 243.5 226.86 243.5 228.14 244.61 227.53 246.59 228.86 245.24 230.24 246.59 229.6 244.59 230.84 243.5" style="fill:#fff"></polygon><polygon points="159.52 319.29 157.33 319.29 156.79 317.57 156.25 319.29 154.01 319.29 155.78 320.82 154.94 323.56 156.79 321.68 158.69 323.56 157.81 320.79 159.52 319.29" style="fill:#fff"></polygon><polygon points="342.62 368.64 340.44 368.64 339.89 366.93 339.36 368.64 337.11 368.64 338.89 370.17 338.04 372.91 339.89 371.04 341.79 372.91 340.91 370.14 342.62 368.64" style="fill:#fff"></polygon><polygon points="210.38 275.3 208.19 275.3 207.65 273.58 207.12 275.3 204.87 275.3 206.65 276.83 205.8 279.57 207.65 277.7 209.55 279.57 208.67 276.8 210.38 275.3" style="fill:#fff"></polygon><circle cx="369.47" cy="317.57" r="9.1" transform="translate(-93.4 165.56) rotate(-22.5)" style="fill:#fff"></circle><path d="M285.75,102.71a5.14,5.14,0,1,1-5.14-5.14A5.14,5.14,0,0,1,285.75,102.71Z" style="fill:#fff"></path><path d="M99.69,213.66,95.46,215a5.2,5.2,0,0,0-5.79,3.42l-3.27,3.05a.42.42,0,0,0,.41.71l4.24-1.28A5.17,5.17,0,0,0,97,217.47l3.16-3.06A.45.45,0,0,0,99.69,213.66Z" style="fill:#fff"></path></g><g id="freepik--Shadow--inject-1"><ellipse id="freepik--path--inject-1" cx="250" cy="416.24" rx="193.89" ry="11.32" style="fill:#f5f5f5"></ellipse></g><g id="freepik--Satelite--inject-1"><polygon points="405.99 353.04 419.86 344.1 415.56 355.84 405.19 355.84 405.99 353.04" style="fill:#263238"></polygon><polygon points="405.99 353.04 419.86 344.1 415.56 355.84 405.19 355.84 405.99 353.04" style="fill:#fff;opacity:0.2"></polygon><polygon points="406.27 353.17 419.71 344.51 415.56 355.84 405.44 355.84 406.27 353.17" style="fill:#fff;opacity:0.4"></polygon><polygon points="419.89 361.27 430.58 336.24 423.72 336.24 413.87 361.73 419.89 361.27" style="fill:#263238"></polygon><polygon points="419.89 361.27 430.58 336.24 423.72 336.24 413.87 361.73 419.89 361.27" style="fill:#fff;opacity:0.2"></polygon><polygon points="419.89 361.27 430.49 336.45 423.83 336.45 414.08 361.71 419.89 361.27" style="fill:#fff;opacity:0.4"></polygon><polygon points="420.31 361.18 430.92 336.08 436.84 335.93 426.63 360.28 420.31 361.18" style="fill:#263238"></polygon><polygon points="420.31 361.18 430.92 336.08 436.84 335.93 426.63 360.28 420.31 361.18" style="fill:#fff;opacity:0.2"></polygon><polygon points="420.43 361.16 431.08 336.24 436.78 336.08 426.63 360.28 420.43 361.16" style="fill:#fff;opacity:0.4"></polygon><polygon points="437.18 335.78 442.86 335.66 432.68 359.27 427 360.09 437.18 335.78" style="fill:#263238"></polygon><polygon points="437.18 335.78 442.86 335.66 432.68 359.27 427 360.09 437.18 335.78" style="fill:#fff;opacity:0.2"></polygon><polygon points="437.28 335.93 442.81 335.77 432.68 359.27 427.13 360.07 437.28 335.93" style="fill:#fff;opacity:0.4"></polygon><polygon points="443.22 335.66 448.2 335.51 438.42 358.44 432.98 359.24 443.22 335.66" style="fill:#263238"></polygon><polygon points="443.22 335.66 448.2 335.51 438.42 358.44 432.98 359.24 443.22 335.66" style="fill:#fff;opacity:0.2"></polygon><polygon points="443.33 335.77 448.17 335.59 438.42 358.44 433.14 359.21 443.33 335.77" style="fill:#fff;opacity:0.4"></polygon><polygon points="400.17 355.92 391.42 379.99 407.79 375.45 415.89 352.12 400.17 355.92" style="fill:#407BFF"></polygon><polygon points="400.17 355.92 391.42 379.99 407.79 375.45 415.89 352.12 400.17 355.92" style="opacity:0.2"></polygon><polygon points="377.32 342.56 400.17 355.92 391.42 379.99 369.15 365.19 377.32 342.56" style="fill:#407BFF"></polygon><polygon points="377.32 342.56 400.17 355.92 391.42 379.99 369.15 365.19 377.32 342.56" style="opacity:0.05"></polygon><polygon points="377.32 342.56 394.18 341.26 415.89 352.12 400.17 355.92 377.32 342.56" style="fill:#407BFF"></polygon><polygon points="377.32 342.56 394.18 341.26 415.89 352.12 400.17 355.92 377.32 342.56" style="fill:#fff;opacity:0.4"></polygon><polygon points="406.42 333.64 407.06 333.97 401.63 348.56 400.82 348.31 406.42 333.64" style="fill:#263238"></polygon><polygon points="406.42 333.64 406.67 333.77 401.09 348.39 400.82 348.31 406.42 333.64" style="fill:#fff;opacity:0.4"></polygon><polygon points="407.06 333.97 406.67 333.77 401.09 348.39 401.63 348.56 407.06 333.97" style="fill:#fff;opacity:0.2"></polygon><polygon points="327.66 339.96 316.4 376.58 329.36 374.56 340.79 339.48 327.66 339.96" style="fill:#263238"></polygon><polygon points="327.66 339.96 316.4 376.58 329.36 374.56 340.79 339.48 327.66 339.96" style="fill:#fff;opacity:0.2"></polygon><polygon points="327.86 340.17 316.68 376.54 329.36 374.56 340.69 339.77 327.86 340.17" style="fill:#fff;opacity:0.4"></polygon><polygon points="341.35 339.48 330.09 374.56 342.32 372.77 353.5 338.99 341.35 339.48" style="fill:#263238"></polygon><polygon points="341.35 339.48 330.09 374.56 342.32 372.77 353.5 338.99 341.35 339.48" style="fill:#fff;opacity:0.2"></polygon><polygon points="341.56 339.77 330.38 374.51 342.32 372.77 353.44 339.2 341.56 339.77" style="fill:#fff;opacity:0.4"></polygon><polygon points="353.99 339 342.85 372.49 353.99 371.07 365.13 338.71 353.99 339" style="fill:#263238"></polygon><polygon points="353.99 339 342.85 372.49 353.99 371.07 365.13 338.71 353.99 339" style="fill:#fff;opacity:0.2"></polygon><polygon points="354.14 339.2 343.15 372.45 353.99 371.07 365.03 338.99 354.14 339.2" style="fill:#fff;opacity:0.4"></polygon><polygon points="365.58 338.42 354.32 370.91 364.89 369.41 375.82 338.06 365.58 338.42" style="fill:#263238"></polygon><polygon points="365.58 338.42 354.32 370.91 364.89 369.41 375.82 338.06 365.58 338.42" style="fill:#fff;opacity:0.2"></polygon><polygon points="365.7 338.63 354.57 370.88 364.89 369.41 375.75 338.26 365.7 338.63" style="fill:#fff;opacity:0.4"></polygon><polygon points="385.49 355.6 384.16 359.45 367.68 362.73 373.44 346.69 385.49 355.6" style="fill:#263238"></polygon><polygon points="385.49 355.6 384.16 359.45 367.68 362.73 373.44 346.69 385.49 355.6" style="fill:#fff;opacity:0.2"></polygon><polygon points="385.37 355.92 384.16 359.45 367.98 362.67 373.56 347.01 385.37 355.92" style="fill:#fff;opacity:0.4"></polygon><path d="M416.25,353.81l-15.71,29.27c-4.2-2-4.23-13.91-1.1-20.75C403.31,355.69,411.9,352.43,416.25,353.81Z" style="fill:#263238"></path><g style="opacity:0.2"><path d="M401.8,380.72l-.68,1.27c-3.89-3.67-3.56-14.19-1.68-19.66C396.48,374.06,401.8,380.72,401.8,380.72Z"></path></g><g style="opacity:0.30000000000000004"><path d="M416.25,353.81l-15.71,29.27c-4.2-2-4.23-13.91-1.1-20.75C403.31,355.69,411.9,352.43,416.25,353.81Z" style="fill:#fff"></path></g><path d="M400.42,361.42c6.21-5.42,10.63-6.27,14.52-5.17l.63-1.18C410.76,354.47,406.27,355.63,400.42,361.42Z" style="fill:#fff;opacity:0.2"></path><path d="M402.33,364.87c-4.6,8-5.62,16-2.28,17.92s9.77-3,14.37-10.94,5.62-16,2.28-17.91S406.93,356.91,402.33,364.87Z" style="fill:#407BFF"></path><path d="M402.33,364.87c-4.6,8-5.62,16-2.28,17.92s9.77-3,14.37-10.94,5.62-16,2.28-17.91S406.93,356.91,402.33,364.87Z" style="fill:#fff;opacity:0.4"></path><path d="M402.35,364.57a29.63,29.63,0,0,0-2.21,4.94,3.14,3.14,0,0,0,1.12,3.67c1.6.92,4.69-1.43,6.9-5.25s2.7-7.68,1.1-8.61c-.94-.54-2.75-.19-4.06,1.31A26.32,26.32,0,0,0,402.35,364.57Z" style="opacity:0.2"></path><path d="M410.76,367.28l-4.18-1.69L404.21,363a2.48,2.48,0,0,0-1.71,2.77l3.22,1.06,3.2,3.61Z" style="fill:#263238"></path><path d="M410.76,367.28l-4.18-1.69L404.21,363a2.48,2.48,0,0,0-1.71,2.77l3.22,1.06,3.2,3.61Z" style="fill:#fff;opacity:0.2"></path><path d="M409.17,368.49c-.51.89-.62,1.77-.25,2s1.08-.33,1.59-1.21.62-1.77.25-2S409.68,367.61,409.17,368.49Z" style="fill:#263238"></path><path d="M409.17,368.49c-.51.89-.62,1.77-.25,2s1.08-.33,1.59-1.21.62-1.77.25-2S409.68,367.61,409.17,368.49Z" style="fill:#fff;opacity:0.4"></path><path d="M402.87,364.06a3.07,3.07,0,0,0-.37,1.75l3.22,1.06,3.2,3.61c-.4-.3-.12-1.5.34-2.13C409.26,368.35,408,367.56,402.87,364.06Z" style="opacity:0.2"></path><polygon points="410.48 367.25 406.47 365.74 403.98 363.13 403.82 363.19 406.4 365.77 410.25 367.33 410.48 367.25" style="fill:#fff;opacity:0.2"></polygon><g style="opacity:0.2"><path d="M409.37,368.61c-.43.75-.53,1.51-.22,1.69s.93-.28,1.36-1,.53-1.51.22-1.7S409.8,367.85,409.37,368.61Z"></path><path d="M409.37,368.61c-.43.75-.53,1.51-.22,1.69s.93-.28,1.36-1,.53-1.51.22-1.7S409.8,367.85,409.37,368.61Z" style="opacity:0.4"></path></g><polygon points="402.75 380.94 402.95 381.26 414.41 375.67 414.26 375.37 402.75 380.94" style="fill:#263238"></polygon><polygon points="402.75 380.94 402.95 381.26 414.41 375.67 414.26 375.37 402.75 380.94" style="fill:#fff;opacity:0.1"></polygon><polygon points="417.71 359.69 418.01 359.69 418.33 369.73 417.93 369.73 417.71 359.69" style="fill:#263238"></polygon><polygon points="417.71 359.69 418.01 359.69 418.33 369.73 417.93 369.73 417.71 359.69" style="fill:#fff;opacity:0.1"></polygon><polygon points="404.26 362.14 418.33 369.73 418.16 369.96 404 362.4 404.26 362.14" style="fill:#263238"></polygon><polygon points="404.26 362.14 418.33 369.73 418.16 369.96 404 362.4 404.26 362.14" style="fill:#fff;opacity:0.1"></polygon><polygon points="403.65 363.11 403.89 362.81 414.51 375.23 414.35 375.47 403.65 363.11" style="fill:#263238"></polygon><polygon points="403.65 363.11 403.89 362.81 414.51 375.23 414.35 375.47 403.65 363.11" style="fill:#fff;opacity:0.1"></polygon><path d="M415.1,372.19c-1,1.79-1.26,3.59-.51,4s2.2-.66,3.23-2.45,1.26-3.59.51-4S416.14,370.4,415.1,372.19Z" style="fill:#263238"></path><path d="M415.1,372.19c-1,1.79-1.26,3.59-.51,4s2.2-.66,3.23-2.45,1.26-3.59.51-4S416.14,370.4,415.1,372.19Z" style="fill:#fff;opacity:0.2"></path><path d="M415.38,372.35c-.93,1.61-1.13,3.22-.46,3.61s2-.6,2.9-2.2,1.13-3.23.46-3.62S416.31,370.74,415.38,372.35Z" style="opacity:0.1"></path><polygon points="384.16 359.45 369.15 365.19 370.25 362.14 384.16 359.45" style="opacity:0.2"></polygon></g></svg>