<svg xmlns="http://www.w3.org/2000/svg" viewBox="0 0 500 500"><g id="freepik--background-complete--inject-20"><path d="M324.17,90l.56,1a6.85,6.85,0,0,0,2.71,2.68l1,.55-1,.55a6.81,6.81,0,0,0-2.71,2.69l-.56,1-.55-1a6.81,6.81,0,0,0-2.71-2.69l-1-.55,1-.55A6.85,6.85,0,0,0,323.62,91Z" style="fill:#ebebeb"></path><path d="M113.84,44.77l.56,1a6.7,6.7,0,0,0,2.7,2.68l1,.56-1,.55a6.76,6.76,0,0,0-2.7,2.68l-.56,1-.56-1a6.76,6.76,0,0,0-2.7-2.68l-1-.55,1-.56a6.7,6.7,0,0,0,2.7-2.68Z" style="fill:#ebebeb"></path><path d="M444.31,154.69l.56,1a6.72,6.72,0,0,0,2.71,2.68l1,.55-1,.55a6.72,6.72,0,0,0-2.71,2.68l-.56,1-.56-1a6.76,6.76,0,0,0-2.7-2.68l-1-.55,1-.55a6.76,6.76,0,0,0,2.7-2.68Z" style="fill:#ebebeb"></path><path d="M33.24,224.31l.55,1A6.85,6.85,0,0,0,36.5,228l1,.55-1,.55a6.85,6.85,0,0,0-2.71,2.68l-.55,1-.56-1A6.72,6.72,0,0,0,30,229.1l-1-.55,1-.55a6.72,6.72,0,0,0,2.71-2.68Z" style="fill:#ebebeb"></path><path d="M224.51,41.69l1,1.75a11.63,11.63,0,0,0,4.63,4.62l1.74,1-1.74.95a11.65,11.65,0,0,0-4.63,4.63l-1,1.74-.95-1.74A11.65,11.65,0,0,0,218.93,50L217.19,49l1.74-1a11.63,11.63,0,0,0,4.63-4.62Z" style="fill:#ebebeb"></path><path d="M94.63,127.27l1,1.74a11.72,11.72,0,0,0,4.63,4.63l1.74,1-1.74.95a11.72,11.72,0,0,0-4.63,4.63l-1,1.74-.95-1.74a11.65,11.65,0,0,0-4.63-4.63l-1.74-.95,1.74-1A11.65,11.65,0,0,0,93.68,129Z" style="fill:#ebebeb"></path><path d="M418,69.38l.28.5a3.32,3.32,0,0,0,1.34,1.34l.5.28-.5.28a3.32,3.32,0,0,0-1.34,1.34l-.28.5-.27-.5a3.39,3.39,0,0,0-1.34-1.34l-.51-.28.51-.28a3.39,3.39,0,0,0,1.34-1.34Z" style="fill:#ebebeb"></path><path d="M41.23,149.54l.28.51a3.32,3.32,0,0,0,1.34,1.34l.5.28-.5.27a3.39,3.39,0,0,0-1.34,1.34l-.28.51-.27-.51a3.45,3.45,0,0,0-1.34-1.34l-.51-.27.51-.28A3.39,3.39,0,0,0,41,150.05Z" style="fill:#ebebeb"></path><path d="M101,392.34c7.46,7.1,15.06,16.73,25.32,15.76C137.61,407,146,393,157,395.56c6,1.39,9.63,7.18,14.38,11,9.55,7.72,24,7.16,34.66,1.15s18.2-16.49,23.68-27.47C246,347.76,247.05,310,246.69,273.69L250,151.75l3.31,125c-.36,36.32.71,74.06,16.93,106.56,5.48,11,13,21.47,23.68,27.48s25.11,6.56,34.66-1.15c4.75-3.84,8.43-9.63,14.38-11,11-2.57,19.43,11.48,30.71,12.54,10.26,1,17.86-8.66,25.32-15.76a66.16,66.16,0,0,1,38.42-17.36,202.16,202.16,0,0,0,11.18-66.5c0-111.8-90.63-202.44-202.43-202.44S43.72,199.75,43.72,311.55a202.14,202.14,0,0,0,10,63C71,374.23,88.47,380.42,101,392.34Z" style="fill:#ebebeb"></path><path d="M355.15,262H479.41s-11-20-43-17.08c-30.55,2.78-32.1-9.84-47.63-11.39S360.33,243.92,355.15,262Z" style="fill:#fff"></path><path d="M20,287.68H99.39s-7-12.79-27.47-10.93c-19.53,1.78-20.52-6.28-30.45-7.28S23.26,276.09,20,287.68Z" style="fill:#fff"></path><path d="M208.9,406c.51-.33,1-.67,1.49-1l.66-.5c.48-.37,1-.74,1.42-1.12l.57-.47c.53-.46,1.06-.92,1.58-1.4l.3-.28a58.47,58.47,0,0,0,5.47-6l0,0c.57-.71,1.12-1.43,1.66-2.17h0c-6.71-.47-13.61.42-20-1.54-13.13-4-20.39-18.54-32.9-24.19-16.48-7.45-37.81,2.27-53-7.57-11.4-7.38-14.26-22.54-21.57-34-10.83-17-31.4-26-50.74-20.42q-.11,3.12-.11,6.25A202.56,202.56,0,0,0,53,372.15c.47.81.93,1.62,1.43,2.44.18,0,.37,0,.55,0l2.53,0,.64,0c.86,0,1.71.08,2.56.15.21,0,.42,0,.62.06.86.07,1.72.16,2.57.27l.62.08c.85.12,1.7.24,2.55.39l.63.12c.84.16,1.68.32,2.51.5l.67.16c.81.19,1.63.38,2.44.6l.72.21c.78.22,1.57.45,2.35.7l.78.27c.75.25,1.5.5,2.24.78l.85.34c.71.27,1.42.55,2.11.85.32.13.63.28.94.42.66.3,1.32.59,2,.91.35.16.69.35,1,.53.61.3,1.21.61,1.81.93.38.21.74.44,1.12.65.55.32,1.1.63,1.64,1l1.23.79,1.46.95c.46.32.9.66,1.36,1s.83.59,1.23.9,1,.84,1.57,1.26c.3.26.62.5.93.76.81.69,1.61,1.41,2.39,2.15,7.46,7.1,15.06,16.73,25.32,15.76C137.61,407,146,393,157,395.56c6,1.39,9.63,7.18,14.38,11,9.55,7.72,24,7.16,34.66,1.15.75-.41,1.47-.86,2.19-1.32Z" style="fill:#e0e0e0"></path><path d="M401.6,393.08l1.39-1.15c.25-.2.52-.39.78-.59.44-.34.88-.68,1.33-1l.83-.59,1.34-.92.85-.55c.46-.29.92-.59,1.39-.87.28-.18.57-.34.85-.5l1.44-.83.86-.46,1.5-.78.84-.4c.52-.25,1-.5,1.56-.74l.83-.36,1.62-.68.81-.32,1.68-.63.79-.27,1.74-.58.77-.23c.6-.18,1.19-.36,1.79-.52l.76-.2,1.83-.45.75-.17,1.87-.38.73-.14c.63-.11,1.26-.22,1.9-.31l.72-.11,1.06-.15c.79-1.1,1.54-2.19,2.25-3.29a202,202,0,0,0,10.13-63.35q0-6.14-.37-12.18c-19.53-4.9-37.9,5-48.12,22.39-6.9,11.7-9.23,26.95-20.36,34.74-14.83,10.36-36.48,1.39-52.7,9.42C314.75,372,308,386.79,295,391.26c-6,2.07-12.6,1.58-19,2.14h0c.53.78,1.07,1.56,1.63,2.32.14.21.29.41.44.61.46.61.92,1.22,1.39,1.81l.41.51c.59.74,1.21,1.46,1.84,2.16l.33.37c.53.58,1.07,1.15,1.62,1.7l.57.57c.56.56,1.14,1.1,1.73,1.63l.35.32c.7.61,1.42,1.2,2.15,1.77l.58.43c.57.44,1.16.86,1.76,1.27l.67.45c.78.51,1.58,1,2.41,1.47,10.7,6,25.11,6.56,34.66-1.15,4.75-3.84,8.43-9.63,14.38-11,11-2.57,19.43,11.48,30.71,12.54,10.26,1,17.86-8.66,25.32-15.76.64-.61,1.3-1.21,2-1.79C401.17,393.44,401.39,393.27,401.6,393.08Z" style="fill:#e0e0e0"></path></g><g id="freepik--Floor--inject-20"><path d="M446.31,460c0,.14-88.69.26-198.07.26s-198.1-.12-198.1-.26,88.67-.26,198.1-.26S446.31,459.87,446.31,460Z" style="fill:#263238"></path></g><g id="freepik--Stars--inject-20"><circle cx="403.86" cy="125.37" r="16.58" transform="translate(263.6 524.3) rotate(-87.87)" style="fill:#455a64"></circle><path d="M409.26,119a2.71,2.71,0,1,1,2.64,2.76A2.7,2.7,0,0,1,409.26,119Z" style="fill:#263238"></path><path d="M414.67,125.33a1.58,1.58,0,1,1,1.54,1.61A1.58,1.58,0,0,1,414.67,125.33Z" style="fill:#263238"></path><path d="M412.56,130.16a.58.58,0,1,1,0,1.16.57.57,0,0,1-.56-.59A.58.58,0,0,1,412.56,130.16Z" style="fill:#263238"></path><path d="M371.06,199.47l.57,1a6.92,6.92,0,0,0,2.76,2.76l1,.57-1,.57a6.85,6.85,0,0,0-2.76,2.76l-.57,1-.57-1a6.79,6.79,0,0,0-2.76-2.76l-1-.57,1-.57a6.85,6.85,0,0,0,2.76-2.76Z" style="fill:#455a64"></path><path d="M147.68,112.67l1,1.8a12,12,0,0,0,4.77,4.76l1.79,1-1.79,1a12,12,0,0,0-4.77,4.77l-1,1.79-1-1.79a12,12,0,0,0-4.76-4.77l-1.8-1,1.8-1a12,12,0,0,0,4.76-4.76Z" style="fill:#455a64"></path><path d="M83.74,53.56l.37.66A4.38,4.38,0,0,0,85.87,56l.66.36-.66.36a4.38,4.38,0,0,0-1.76,1.76l-.37.66-.36-.66a4.38,4.38,0,0,0-1.76-1.76L81,56.34l.66-.36a4.38,4.38,0,0,0,1.76-1.76Z" style="fill:#455a64"></path><path d="M184.13,334.82l.18.33a2.26,2.26,0,0,0,.88.88l.33.18-.33.18a2.32,2.32,0,0,0-.88.88l-.18.33-.18-.33a2.26,2.26,0,0,0-.88-.88l-.33-.18.33-.18a2.19,2.19,0,0,0,.88-.88Z" style="fill:#455a64"></path><path d="M147.86,214.24l.18.33a2.26,2.26,0,0,0,.88.88l.33.18-.33.18a2.26,2.26,0,0,0-.88.88l-.18.33-.18-.33a2.19,2.19,0,0,0-.88-.88l-.33-.18.33-.18a2.19,2.19,0,0,0,.88-.88Z" style="fill:#455a64"></path><path d="M440.64,180.51l.18.33a2.19,2.19,0,0,0,.88.88l.33.18-.33.18a2.19,2.19,0,0,0-.88.88l-.18.33-.18-.33a2.19,2.19,0,0,0-.88-.88l-.33-.18.33-.18a2.19,2.19,0,0,0,.88-.88Z" style="fill:#455a64"></path><path d="M59.67,179l.37.66a4.38,4.38,0,0,0,1.76,1.76l.66.36-.66.36A4.38,4.38,0,0,0,60,183.93l-.37.66-.36-.66a4.38,4.38,0,0,0-1.76-1.76l-.66-.36.66-.36a4.38,4.38,0,0,0,1.76-1.76Z" style="fill:#455a64"></path><path d="M334.33,326l.37.66a4.42,4.42,0,0,0,1.75,1.76l.67.36-.67.36a4.42,4.42,0,0,0-1.75,1.76l-.37.66-.36-.66a4.45,4.45,0,0,0-1.76-1.76l-.66-.36.66-.36a4.45,4.45,0,0,0,1.76-1.76Z" style="fill:#455a64"></path><path d="M355.54,46.83l1,1.79a12,12,0,0,0,4.76,4.77l1.79,1-1.79,1a12,12,0,0,0-4.76,4.76l-1,1.79-1-1.79a12,12,0,0,0-4.77-4.76l-1.79-1,1.79-1a12,12,0,0,0,4.77-4.77Z" style="fill:#455a64"></path><path d="M116.2,263.73a21.68,21.68,0,0,1-7.37-38.26,21.67,21.67,0,1,0,21.45,37.29A21.59,21.59,0,0,1,116.2,263.73Z" style="fill:#455a64"></path></g></svg>